<svg xmlns="http://www.w3.org/2000/svg" width="250" height="250" viewBox="0 0 250 250" fill="none"><path d="M122.489 250C104.866 250 92.0017 243.21 83.8953 229.63C75.9651 216.049 72 196.384 72 170.635C72 147.884 74.8196 123.192 80.4589 96.5608C86.0981 69.7531 94.2926 47.0018 105.042 28.3069C115.968 9.43563 128.921 0 143.9 0C152.007 0 158.527 3.52733 163.461 10.582C168.396 17.4603 170.863 26.455 170.863 37.5661C170.863 52.0282 168.131 66.4021 162.668 80.6878C157.205 94.9736 148.13 109.965 135.441 125.661C144.076 126.367 151.566 129.277 157.91 134.392C164.431 139.506 169.365 146.12 172.713 154.233C176.238 162.346 178 171.164 178 180.688C178 193.915 175.357 205.82 170.07 216.402C164.959 226.984 158.175 235.273 149.716 241.27C141.257 247.09 132.181 250 122.489 250ZM106.893 143.651C118.524 122.31 127.776 103.527 134.648 87.3016C141.697 70.8995 145.222 56.3492 145.222 43.6508C145.222 38.0071 144.517 33.6861 143.107 30.6878C141.874 27.6896 140.111 26.1905 137.82 26.1905C134.296 26.1905 130.419 31.4815 126.19 42.0635C122.136 52.4691 118.347 66.6667 114.823 84.6561C111.298 102.646 108.655 122.31 106.893 143.651ZM123.546 221.429C129.538 221.429 134.56 218.166 138.613 211.64C142.843 205.115 144.958 195.591 144.958 183.069C144.958 173.369 143.195 166.049 139.671 161.111C136.146 156.173 131.917 153.704 126.983 153.704C120.815 153.704 115.616 156.878 111.387 163.228C107.157 169.577 105.042 178.836 105.042 191.005C105.042 201.587 106.805 209.347 110.329 214.286C113.854 219.048 118.259 221.429 123.546 221.429Z" fill="white"/></svg>